<?xml version="1.0" encoding="UTF-8" standalone="no"?>
<svg
   width="512"
   height="512"
   viewBox="0 0 135.46666 135.46667"
   version="1.1"
   id="svg8"
   inkscape:version="1.2.2 (b0a8486541, 2022-12-01)"
   sodipodi:docname="appicon.svg"
   xml:space="preserve"
   inkscape:export-filename="appicon.png"
   inkscape:export-xdpi="96"
   inkscape:export-ydpi="96"
   xmlns:inkscape="http://www.inkscape.org/namespaces/inkscape"
   xmlns:sodipodi="http://sodipodi.sourceforge.net/DTD/sodipodi-0.dtd"
   xmlns="http://www.w3.org/2000/svg"
   xmlns:svg="http://www.w3.org/2000/svg"
   xmlns:rdf="http://www.w3.org/1999/02/22-rdf-syntax-ns#"
   xmlns:cc="http://creativecommons.org/ns#"
   xmlns:dc="http://purl.org/dc/elements/1.1/"><defs
     id="defs2"><inkscape:path-effect
       effect="fillet_chamfer"
       id="path-effect1723"
       is_visible="true"
       lpeversion="1"
       nodesatellites_param="F,0,0,1,0,6,0,1 @ F,0,0,1,0,6,0,1 @ F,0,0,1,0,6,0,1 @ F,0,0,1,0,6,0,1 @ F,0,0,1,0,6,0,1 @ F,0,0,1,0,6,0,1"
       unit="px"
       method="auto"
       mode="F"
       radius="6"
       chamfer_steps="1"
       flexible="false"
       use_knot_distance="true"
       apply_no_radius="true"
       apply_with_radius="true"
       only_selected="false"
       hide_knots="false" /><inkscape:path-effect
       effect="fillet_chamfer"
       id="path-effect1723-3"
       is_visible="true"
       lpeversion="1"
       nodesatellites_param="F,0,0,1,0,6,0,1 @ F,0,0,1,0,6,0,1 @ F,0,0,1,0,6,0,1 @ F,0,0,1,0,6,0,1 @ F,0,0,1,0,6,0,1 @ F,0,0,1,0,6,0,1"
       unit="px"
       method="auto"
       mode="F"
       radius="6"
       chamfer_steps="1"
       flexible="false"
       use_knot_distance="true"
       apply_no_radius="true"
       apply_with_radius="true"
       only_selected="false"
       hide_knots="false" /></defs><sodipodi:namedview
     id="base"
     pagecolor="#ffffff"
     bordercolor="#666666"
     borderopacity="1.0"
     inkscape:pageopacity="0.0"
     inkscape:pageshadow="2"
     inkscape:zoom="0.96984724"
     inkscape:cx="194.36051"
     inkscape:cy="300.04725"
     inkscape:document-units="px"
     inkscape:current-layer="layer1"
     inkscape:document-rotation="0"
     showgrid="false"
     units="px"
     inkscape:snap-page="true"
     inkscape:window-width="1920"
     inkscape:window-height="1026"
     inkscape:window-x="0"
     inkscape:window-y="32"
     inkscape:window-maximized="1"
     inkscape:showpageshadow="0"
     inkscape:pagecheckerboard="1"
     inkscape:deskcolor="#d1d1d1" /><metadata
     id="metadata5"><rdf:RDF><cc:Work
         rdf:about=""><dc:format>image/svg+xml</dc:format><dc:type
           rdf:resource="http://purl.org/dc/dcmitype/StillImage" /><dc:title /></cc:Work></rdf:RDF></metadata><g
     inkscape:label="Layer 1"
     inkscape:groupmode="layer"
     id="layer1"><rect
       style="fill:#98e598;fill-opacity:1;stroke-width:1.7174;stop-color:#000000"
       id="rect833"
       width="135.46666"
       height="135.46666"
       x="0"
       y="0" /><path
       id="path466"
       style="fill:#1f7a1f;fill-opacity:1;stroke-width:0.185221;stop-color:#000000"
       d="m 95.71508,32.068943 c -16.232333,-12.45533 -38.951365,-12.455331 -55.183698,0 -2.627078,2.015799 -6.445396,5.834116 -8.461195,8.461193 -12.455334,16.232334 -12.455334,38.95137 -2e-6,55.183705 2.0158,2.627077 5.835424,6.444289 8.465073,8.456689 12.542253,9.59823 29.23412,11.97969 43.960119,6.27189 3.087498,-1.19672 8.030125,-1.83548 11.23092,-0.97783 l 12.973053,3.47615 a 3.4640645,3.4640645 134.99983 0 0 4.24259,-4.24262 l -3.46861,-12.944653 c -0.85768,-3.20079 -0.21813,-8.14296 0.97964,-11.230051 5.71752,-14.736115 3.33283,-31.44318 -6.27911,-43.991239 -2.01361,-2.62871 -5.831702,-6.447435 -8.45878,-8.463234 z"
       inkscape:path-effect="#path-effect1723"
       inkscape:original-d="m 100.22198,36.023238 a 45.394353,45.394353 0 0 0 -64.197498,-10e-7 45.394353,45.394353 0 0 0 -2e-6,64.197503 45.394353,45.394353 0 0 0 53.906265,7.69093 l 24.564155,6.58199 -6.57453,-24.535736 a 45.394353,45.394353 0 0 0 -7.69839,-53.934686 z"
       inkscape:transform-center-x="-0.38884272"
       inkscape:transform-center-y="0.38229279" /><path
       d="m 68.09718,41.656614 c -14.60499,0 -26.431883,11.853333 -26.431883,26.458331 0,14.605002 11.826893,26.458335 26.431883,26.458335 14.631441,0 26.484783,-11.853333 26.484783,-26.458335 0,-14.604998 -11.853342,-26.458331 -26.484783,-26.458331 z m 18.335588,15.874997 h -7.805194 c -0.846651,-3.307289 -2.06375,-6.482289 -3.651249,-9.419158 4.868348,1.66687 8.916445,5.053535 11.456443,9.419158 z M 68.12363,47.054113 c 2.196049,3.175 3.915848,6.693959 5.053546,10.477498 H 63.070084 c 1.137698,-3.783539 2.857497,-7.302498 5.053546,-10.477498 z M 47.644893,73.406609 c -0.423499,-1.693331 -0.6879,-3.466039 -0.6879,-5.291664 0,-1.825626 0.264501,-3.598334 0.6879,-5.291665 h 8.942894 c -0.2115,1.74625 -0.3705,3.4925 -0.3705,5.291665 0,1.799164 0.159,3.545414 0.3705,5.291664 z m 2.169599,5.291669 h 7.805194 c 0.846651,3.307289 2.06375,6.482289 3.651249,9.419163 -4.868348,-1.666875 -8.916445,-5.027084 -11.456443,-9.419163 z m 7.805194,-21.166667 h -7.805194 c 2.539998,-4.392079 6.588095,-7.752288 11.456443,-9.419158 -1.587499,2.936869 -2.804598,6.111869 -3.651249,9.419158 z M 68.12363,89.175776 c -2.196049,-3.175 -3.915848,-6.693959 -5.053546,-10.477498 h 10.107092 c -1.137698,3.783539 -2.857497,7.302498 -5.053546,10.477498 z M 74.314876,73.406609 H 61.932384 c -0.238,-1.74625 -0.4235,-3.4925 -0.4235,-5.291664 0,-1.799165 0.185,-3.571875 0.4235,-5.291665 h 12.382492 c 0.238,1.71979 0.4235,3.4925 0.4235,5.291665 0,1.799164 -0.185,3.545414 -0.4235,5.291664 z m 0.661449,14.710832 c 1.587499,-2.936874 2.804598,-6.111874 3.651249,-9.419163 h 7.805194 c -2.539998,4.365624 -6.588095,7.752288 -11.456443,9.419163 z m 4.683148,-14.710832 c 0.2115,-1.74625 0.3705,-3.4925 0.3705,-5.291664 0,-1.799165 -0.159,-3.545415 -0.3705,-5.291665 h 8.942894 c 0.423499,1.693331 0.6879,3.466039 0.6879,5.291665 0,1.825625 -0.264501,3.598333 -0.6879,5.291664 z"
       id="path1778"
       style="fill:#ffffff;fill-opacity:1;stroke-width:2.64583" /></g></svg>
