<?xml version="1.0" encoding="UTF-8" standalone="no"?>
<svg
   width="512"
   height="512"
   viewBox="0 0 135.46666 135.46667"
   version="1.1"
   id="svg8"
   inkscape:version="1.2.2 (b0a8486541, 2022-12-01)"
   sodipodi:docname="icon.svg"
   xml:space="preserve"
   inkscape:export-filename="icon.png"
   inkscape:export-xdpi="96"
   inkscape:export-ydpi="96"
   xmlns:inkscape="http://www.inkscape.org/namespaces/inkscape"
   xmlns:sodipodi="http://sodipodi.sourceforge.net/DTD/sodipodi-0.dtd"
   xmlns="http://www.w3.org/2000/svg"
   xmlns:svg="http://www.w3.org/2000/svg"
   xmlns:rdf="http://www.w3.org/1999/02/22-rdf-syntax-ns#"
   xmlns:cc="http://creativecommons.org/ns#"
   xmlns:dc="http://purl.org/dc/elements/1.1/"><defs
     id="defs2"><inkscape:path-effect
       effect="fillet_chamfer"
       id="path-effect1723"
       is_visible="true"
       lpeversion="1"
       nodesatellites_param="F,0,0,1,0,6,0,1 @ F,0,0,1,0,6,0,1 @ F,0,0,1,0,6,0,1 @ F,0,0,1,0,6,0,1 @ F,0,0,1,0,6,0,1 @ F,0,0,1,0,6,0,1"
       unit="px"
       method="auto"
       mode="F"
       radius="6"
       chamfer_steps="1"
       flexible="false"
       use_knot_distance="true"
       apply_no_radius="true"
       apply_with_radius="true"
       only_selected="false"
       hide_knots="false" /></defs><sodipodi:namedview
     id="base"
     pagecolor="#ffffff"
     bordercolor="#666666"
     borderopacity="1.0"
     inkscape:pageopacity="0.0"
     inkscape:pageshadow="2"
     inkscape:zoom="0.68578556"
     inkscape:cx="-61.972725"
     inkscape:cy="354.33817"
     inkscape:document-units="px"
     inkscape:current-layer="g1929"
     inkscape:document-rotation="0"
     showgrid="false"
     units="px"
     inkscape:snap-page="true"
     inkscape:window-width="1920"
     inkscape:window-height="1026"
     inkscape:window-x="0"
     inkscape:window-y="32"
     inkscape:window-maximized="1"
     inkscape:showpageshadow="0"
     inkscape:pagecheckerboard="1"
     inkscape:deskcolor="#d1d1d1" /><metadata
     id="metadata5"><rdf:RDF><cc:Work
         rdf:about=""><dc:format>image/svg+xml</dc:format><dc:type
           rdf:resource="http://purl.org/dc/dcmitype/StillImage" /><dc:title /></cc:Work></rdf:RDF></metadata><g
     inkscape:label="Layer 1"
     inkscape:groupmode="layer"
     id="layer1"><g
       id="g1929"
       transform="matrix(1.0058081,0,0,1.0058081,-0.79667976,-0.79987113)"><path
         id="path466"
         style="fill:#1f7a1f;fill-opacity:1;stroke-width:0.274744;stop-color:#000000"
         d="m 111.31684,16.466008 c -24.935796,-20.8943609 -61.443798,-20.8943612 -86.379598,-10e-7 -2.539095,2.127575 -6.346813,5.935292 -8.474389,8.474388 -20.8943654,24.9358 -20.8943669,61.443807 -3e-6,86.379605 2.127575,2.5391 5.936341,6.3459 8.477901,8.47051 19.570303,16.3597 46.787581,20.24285 70.152079,10.00875 3.034303,-1.32909 7.97665,-1.95268 11.17744,-1.09503 l 24.84558,6.65741 a 3.4640641,3.4640641 134.99984 0 0 4.24259,-4.24262 l -6.64626,-24.80345 c -0.85768,-3.20079 -0.2333,-8.14268 1.09682,-11.176532 10.24988,-23.378807 6.36168,-50.619416 -10.0196,-70.197014 -2.12578,-2.540569 -5.93346,-6.348441 -8.47256,-8.476016 z"
         inkscape:path-effect="#path-effect1723"
         inkscape:original-d="m 115.73999,20.517249 a 67.334676,67.334676 0 0 0 -95.225895,-1e-6 67.334676,67.334676 0 0 0 -4e-6,95.225902 67.334676,67.334676 0 0 0 79.960629,11.40816 l 36.43668,9.76325 -9.75218,-36.39453 A 67.334676,67.334676 0 0 0 115.73999,20.517249 Z"
         inkscape:transform-center-x="-0.58342809"
         inkscape:transform-center-y="0.58477089" /><path
         d="m 68.094839,28.679131 c -21.780979,0 -39.418878,17.677329 -39.418878,39.458322 0,21.780998 17.637899,39.458327 39.418878,39.458327 21.820429,0 39.497761,-17.677329 39.497761,-39.458327 0,-21.780993 -17.677332,-39.458322 -39.497761,-39.458322 z m 27.344564,23.67499 H 83.799219 c -1.262643,-4.932286 -3.07775,-9.667285 -5.445248,-14.047151 7.260354,2.485868 13.297436,7.536531 17.085432,14.047151 z M 68.134286,36.728628 c 3.275051,4.734999 5.839854,9.982957 7.536546,15.625493 H 60.597739 c 1.696692,-5.642536 4.261495,-10.890494 7.536547,-15.625493 z M 37.593562,76.029114 c -0.63158,-2.525331 -1.025892,-5.169038 -1.025892,-7.891661 0,-2.722627 0.394461,-5.366334 1.025892,-7.891662 h 13.33688 c -0.315419,2.604248 -0.552541,5.208497 -0.552541,7.891662 0,2.683162 0.237122,5.287411 0.552541,7.891661 z m 3.235606,7.891668 h 11.640184 c 1.262643,4.932286 3.077749,9.667285 5.445247,14.047158 C 50.654246,95.482065 44.617164,90.470856 40.829168,83.920782 Z M 52.469352,52.354121 H 40.829168 c 3.787996,-6.550075 9.825078,-11.561283 17.085431,-14.047151 -2.367498,4.379866 -4.182604,9.114865 -5.445247,14.047151 z m 15.664934,47.192155 c -3.275052,-4.735 -5.839855,-9.982958 -7.536547,-15.625494 H 75.670832 C 73.97414,89.563318 71.409337,94.811276 68.134286,99.546276 Z M 77.367527,76.029114 H 58.901044 c -0.354939,-2.60425 -0.631582,-5.208499 -0.631582,-7.891661 0,-2.683165 0.275897,-5.326874 0.631582,-7.891662 h 18.466483 c 0.354939,2.564788 0.631582,5.208497 0.631582,7.891662 0,2.683162 -0.275898,5.287411 -0.631582,7.891661 z m 0.986444,21.938826 c 2.367498,-4.379873 4.182605,-9.114872 5.445248,-14.047158 H 95.439403 C 91.651407,90.431403 85.614325,95.482065 78.353971,97.96794 Z M 85.33813,76.029114 c 0.315418,-2.60425 0.552541,-5.208499 0.552541,-7.891661 0,-2.683165 -0.237123,-5.287414 -0.552541,-7.891662 h 13.336876 c 0.631583,2.525328 1.025891,5.169035 1.025891,7.891662 0,2.722623 -0.394458,5.36633 -1.025891,7.891661 z"
         id="path1778"
         style="fill:#ffffff;fill-opacity:1;stroke-width:3.94583" /></g></g></svg>
